<?xml version="1.0" encoding="utf-8"?>
<!-- Generator: Adobe Illustrator 24.3.0, SVG Export Plug-In . SVG Version: 6.00 Build 0)  -->
<svg version="1.1" id="Layer_1" xmlns="http://www.w3.org/2000/svg" xmlns:xlink="http://www.w3.org/1999/xlink" x="0px" y="0px"
	 width="42px" height="60px" viewBox="0 0 42 60" style="enable-background:new 0 0 42 60;" xml:space="preserve">
<style type="text/css">
	.st0{fill-rule:evenodd;clip-rule:evenodd;fill:#FFFFFF;}
</style>
<g id="Layer_1_1_">
	<g id="Page-1">
		<g id="_x32_---Store-Known-Map-Mobile" transform="translate(-123.000000, -446.000000)">
			<g id="place-24px-copy" transform="translate(123.000000, 446.500000)">
				<path id="Shape" d="M21-0.5c-11.6,0-21,9.4-21,21c0,15.8,21,39,21,39s21-23.2,21-39C42,8.9,32.6-0.5,21-0.5z"/>
			</g>
		</g>
	</g>
	<path class="st0" d="M25.9,33.6v-0.5h3l-8.4-10.8l-0.4,0.3v10.5h3.3v0.5h-9.6v-0.5h3v-22h-3v-0.5h9.6v0.5h-3.3v10.7l6.2-6
		c1-1,3.5-3.4,3.5-4.1c0-0.4-0.3-0.7-1.4-0.7h-1.8v-0.5h8.6V11h-1.1c-1.9,0-3.7,1.6-4.7,2.6L23,19.9L32.4,32
		c0.6,0.8,0.9,1.1,1.7,1.1H36v0.5H25.9L25.9,33.6z M15.3,28c0-0.3-0.2-0.9-0.6-0.9c-0.5,0-1.4,1.3-3.2,1.3c-2.9,0-5.5-2.8-5.5-6.3
		c0-3.6,2.5-6.3,5.5-6.3c1.7,0,2.5,1.3,3.1,1.3c0.5,0,0.7-0.3,0.7-0.8h0.3V20h-0.3c0-2-1.7-3.9-3.8-3.9c-3.1,0-3.5,3.8-3.5,6.1
		s0.4,6.1,3.5,6.1c2.2,0,3.8-2.1,3.8-4.3h0.3v4H15.3L15.3,28L15.3,28z"/>
</g>
<g id="Layer_2_1_">
</g>
</svg>
